<svg xmlns="http://www.w3.org/2000/svg" viewBox="0 0 1123.31 333.52"><defs><style>.cls-1{stroke:#fff;}.cls-1,.cls-2,.cls-3,.cls-4,.cls-5{stroke-miterlimit:10;}.cls-2{fill:#161a1d;stroke:#f5f3f4;}.cls-3{fill:#d4145a;}.cls-3,.cls-5{stroke:#d4145a;}.cls-3,.cls-4{stroke-width:8px;}.cls-4{fill:#ff15d4;stroke:#f0f;}.cls-5{fill:#f0f;}</style></defs><title>logo-marti_1</title><g id="Livello_2" data-name="Livello 2"><g id="Livello_1-2" data-name="Livello 1"><path class="cls-1" d="M.5,174.16V70.82H36.89c11.65,0,20.44,1.82,26.88,5.56,8.06,4.67,12.31,12.47,12.31,22.56a25.09,25.09,0,0,1-8.89,19.51c10.69,5.62,13.26,15.25,13.26,23.21,0,20-15.67,32.5-40.89,32.5Zm37.34-26.44c12,0,12-4.8,12-7.67s0-6.57-12-6.57H31.58v14.24Zm-1.92-39.44c9.53,0,9.53-4,9.53-6.37s0-4.66-9.37-4.66h-4.5v11Z"/><path class="cls-2" d="M5.5,75.82H36.89c19.4,0,34.2,5.31,34.2,23.12,0,8.38-5,17.31-16,20.17v.58c13.34,2.46,20.32,9.49,20.32,22,0,19-15.56,27.5-35.89,27.5H5.5Zm30.42,37.46c10.26,0,14.53-4.33,14.53-11.37s-4.55-9.66-14.37-9.66h-9.5v21Zm1.92,39.44c11.49,0,17-4.16,17-12.67,0-8.19-5.36-11.57-17-11.57H26.58v24.24Z"/><polygon class="cls-1" points="94.71 174.16 94.71 70.82 125.8 70.82 125.8 146.44 167.35 146.44 167.35 174.16 94.71 174.16"/><path class="cls-2" d="M99.71,75.82H120.8v75.62h41.55v17.72H99.71Z"/><path class="cls-1" d="M216.92,175.88c-26.24,0-42.54-20.62-42.54-53.82,0-32.67,16.3-53,42.54-53s42.55,20.29,42.55,53C259.47,155.26,243.17,175.88,216.92,175.88Zm0-78.53c-6.81,0-10.88,9.23-10.88,24.71,0,16,4.07,25.57,10.88,25.57s10.89-9.56,10.89-25.57C227.81,106.58,223.74,97.35,216.92,97.35Z"/><path class="cls-2" d="M179.38,122.06c0-31.19,15.31-48,37.54-48s37.55,16.77,37.55,48c0,31.93-15.31,48.82-37.55,48.82S179.38,154,179.38,122.06Zm53.43,0c0-19.4-6.15-29.71-15.89-29.71S201,102.66,201,122.06c0,20.13,6.15,30.57,15.88,30.57S232.81,142.19,232.81,122.06Z"/><path class="cls-1" d="M314.46,175.88c-13.2,0-25.23-4.84-33.88-13.63-9.39-9.54-14.35-23.11-14.35-39.25s4.95-29.76,14.31-39.51c8.9-9.28,21.43-14.39,35.28-14.39,15.54,0,26.32,8.34,31.36,13.31l3.38,3.34-18.18,20.42-3.74-3.46c-4-3.71-8-5.36-12.82-5.36-10.9,0-17.93,9.79-17.93,25,0,15.85,7,25.32,18.75,25.32,4.75,0,9.05-2.17,13.14-6.63l3.7-4,18.26,20.08-2.83,3.34C340.35,170.52,328.44,175.88,314.46,175.88Z"/><path class="cls-2" d="M271.23,123c0-30.94,19.58-48.9,44.59-48.9,11.83,0,21.54,5.65,27.85,11.87L332,99c-4.46-4.12-9.48-6.69-16.22-6.69-13.25,0-22.93,11.26-22.93,30,0,19.18,9.68,30.32,23.75,30.32,6.74,0,12.29-3.31,16.82-8.24l11.63,12.78c-7.61,9-18.06,13.71-30.62,13.71C291.26,170.88,271.23,154.48,271.23,123Z"/><polygon class="cls-1" points="411.61 174.16 393.93 138.86 389.01 145.35 389.01 174.16 357.63 174.16 357.63 70.82 389.01 70.82 389.01 99.18 409.49 70.82 445.58 70.82 413.27 113.38 446.56 174.16 411.61 174.16"/><polygon class="cls-2" points="438.12 169.16 414.7 169.16 394.81 129.44 384.01 143.67 384.01 169.16 362.64 169.16 362.64 75.82 384.01 75.82 384.01 113.91 384.54 113.91 412.05 75.82 435.51 75.82 407.34 112.94 438.12 169.16"/><path class="cls-1" d="M448.05,174.16V70.82h36.4c11.64,0,20.43,1.82,26.88,5.56,8.05,4.67,12.31,12.47,12.31,22.56a25.1,25.1,0,0,1-8.9,19.51C525.43,124.07,528,133.7,528,141.66c0,20-15.67,32.5-40.9,32.5Zm37.34-26.44c12,0,12-4.8,12-7.67s0-6.57-12-6.57h-6.25v14.24Zm-1.92-39.44c9.53,0,9.53-4,9.53-6.37s0-4.66-9.37-4.66h-4.49v11Z"/><path class="cls-2" d="M453.05,75.82h31.4c19.39,0,34.19,5.31,34.19,23.12,0,8.38-5,17.31-16,20.17v.58c13.34,2.46,20.33,9.49,20.33,22,0,19-15.57,27.5-35.9,27.5H453.05Zm30.42,37.46c10.26,0,14.53-4.33,14.53-11.37s-4.55-9.66-14.37-9.66h-9.49v21Zm1.92,39.44c11.5,0,17-4.16,17-12.67,0-8.19-5.36-11.57-17-11.57H474.14v24.24Z"/><path class="cls-1" d="M575.21,175.88c-25.19,0-39.07-15.15-39.07-42.66V70.82h31.17v64.55c0,12.26,5.14,12.26,7.9,12.26s8.19,0,8.19-12.26V70.82h30.39v62.4C613.79,160.73,600.09,175.88,575.21,175.88Z"/><path class="cls-2" d="M541.14,133.22V75.82h21.17v59.55c0,11.17,4.11,17.26,12.9,17.26s13.19-6.09,13.19-17.26V75.82h20.39v57.4c0,24.24-10.9,37.66-33.58,37.66S541.14,157.46,541.14,133.22Z"/><path class="cls-1" d="M664.26,175.88a58.93,58.93,0,0,1-38.87-14.76l-3.6-3.22,18.4-22L644,139c6.78,5.55,14.47,8.61,21.64,8.61,4,0,8.11-.94,8.11-3,0-2.4-1.18-3.25-9-6.47-.74-.3-1.52-.62-2.31-1L650.35,132c-14.56-5.57-22.91-16.53-22.91-30.08,0-18.71,16.86-32.82,39.21-32.82a50.37,50.37,0,0,1,34.44,13.6l3.33,3.16L688,106.47l-3.86-2.77c-5.6-4-10.44-6.35-18.59-6.35-2.5,0-6.68.43-6.68,3.33,0,1.88,5.19,3.82,10.68,5.87l1.38.51,11.42,4.84c15.32,5.78,23.09,15.88,23.09,30C705.39,158.28,692.52,175.88,664.26,175.88Z"/><path class="cls-2" d="M628.73,157.4l12.12-14.51c7.06,5.78,15.76,9.74,24.81,9.74s13.11-3.47,13.11-8c0-6.71-5.55-8.34-14.38-12l-12.16-5.19c-10.35-3.93-19.79-11.86-19.79-25.44,0-15.46,13.93-27.82,34.21-27.82a45.24,45.24,0,0,1,31,12.22L687,99.64c-6.58-4.72-12.39-7.29-21.51-7.29-7,0-11.68,2.88-11.68,8.33,0,5.62,6.25,7.67,15.2,11l11.42,4.84c12.23,4.58,19.95,12.2,19.95,25.37,0,15.52-13,29-36.13,29A53.77,53.77,0,0,1,628.73,157.4Z"/><polygon class="cls-1" points="738.43 174.16 738.43 98.53 710.44 98.53 710.44 70.82 797.53 70.82 797.53 98.53 769.55 98.53 769.55 174.16 738.43 174.16"/><path class="cls-2" d="M743.43,93.53h-28V75.82h77.09V93.53h-28v75.63H743.43Z"/><polygon class="cls-1" points="808.76 174.16 808.76 70.82 880.63 70.82 880.63 98.53 839.88 98.53 839.88 107.25 874.5 107.25 874.5 134.96 839.88 134.96 839.88 146.44 882.06 146.44 882.06 174.16 808.76 174.16"/><path class="cls-2" d="M813.76,75.82h61.87V93.53H834.88v18.72H869.5V130H834.88v21.48h42.18v17.72h-63.3Z"/><path class="cls-1" d="M947.05,174.16l-17.82-33.58h-3.08v33.58H895V70.82h38.19c26.46,0,41,12.1,41,34.08,0,12.64-5.2,22.72-14.77,28.9l22.82,40.36Zm-15.6-60.35c12,0,12-6.24,12-8.91,0-3.43,0-7.31-12-7.31h-5.3v16.22Z"/><path class="cls-2" d="M952.59,131.83c10-4.49,16.62-13.21,16.62-26.93,0-22.21-16.26-29.08-36-29.08H900v93.34h21.17V135.58h11.1l17.81,33.58h23.63ZM921.15,92.59h10.3c11.1,0,17,3.09,17,12.31s-6,13.91-17,13.91h-10.3Z"/><path class="cls-3" d="M917.84,329.52a30.67,30.67,0,0,1-8.46-1.21l-4.1-1.18,5.88-19,4.27,1.83a27.26,27.26,0,0,0,10.51,2.5,14.45,14.45,0,0,0,5.08-.88,16.58,16.58,0,0,0,7.17-5.64,17.69,17.69,0,0,0,3.84-8.68l0-.13c.66-4.14.31-11.48-1-21.81l-2.67-20.76c-4.41,12.4-10.82,20.07-19.36,23.25a20.15,20.15,0,0,1-7,1.33,18.77,18.77,0,0,1-9.62-2.71c-5-2.92-8.67-7.6-11-13.9-3.1-8.31-4-17.9-2.71-28.5a76.17,76.17,0,0,1,9.14-28.52c5-8.84,11.18-14.67,18.32-17.34a25.31,25.31,0,0,1,8.84-1.66,22.53,22.53,0,0,1,4.7.49v-.14l17.13-16.22,10.07,90.25A165.22,165.22,0,0,1,958.43,281,61,61,0,0,1,957,294.15a48.09,48.09,0,0,1-9.87,20.59,42.24,42.24,0,0,1-17.87,12.65A32.52,32.52,0,0,1,917.84,329.52Zm5.94-130.79a8.54,8.54,0,0,0-3,.57c-4.29,1.6-7.78,5.88-10.38,12.72a69,69,0,0,0-3.72,21.88c-.2,8.24.74,15.22,2.81,20.75,1.2,3.21,2.73,5.43,4.57,6.6a4.83,4.83,0,0,0,2.66.82h0a6.8,6.8,0,0,0,2.37-.48c2.23-.83,4.52-3.42,6.61-7.47,2.43-4.7,4.37-10.93,5.78-18.52a95.79,95.79,0,0,0,.5-29.18l-.53-4.43C928.74,199.83,926.17,198.73,923.78,198.73Z"/><path class="cls-4" d="M937.24,182.75l9.14,81.89A164.34,164.34,0,0,1,948,284.2a56.54,56.54,0,0,1-1.38,12.28,44,44,0,0,1-9,18.84,38,38,0,0,1-16.12,11.41,26.83,26.83,0,0,1-17.21.81l3.24-10.45q10.85,4.64,18.71,1.7a20.62,20.62,0,0,0,9-7A22,22,0,0,0,940,301.07q1.08-6.84-1-23L933.25,234q-5,36.89-22,43.22a14.6,14.6,0,0,1-13.08-1.07Q892,272.47,889,264.35q-4.31-11.55-2.48-26.53a71.91,71.91,0,0,1,8.64-27q6.79-12,16.14-15.48a19.78,19.78,0,0,1,16.94,1.1l-.5-4.72Zm-8.08,20.38q-8.24-7.42-16.1-4.49-8.23,3.06-12.83,15.15a73,73,0,0,0-4,23.27q-.32,13.22,3.08,22.31,2.3,6.15,6.25,8.67a9.36,9.36,0,0,0,8.74.73q4.92-1.84,8.86-9.47t6.18-19.68a99.59,99.59,0,0,0,.54-30.45Z"/><path class="cls-3" d="M994.77,248.37a13.36,13.36,0,0,1-7.77-2.7,22,22,0,0,1-7.75-10.62,79.46,79.46,0,0,1-3.09-13l-8.71-48.15,18-16.92,5.09,53c.64,6.92,1.65,12.28,3,15.93a10.16,10.16,0,0,0,2.55,4.18,2.32,2.32,0,0,0,.4.29c.51-.38,2.67-2.42,6.24-11.21l1.54-3.79,10.42,4-2.28,5.71a126.54,126.54,0,0,1-6.41,15.48c-2,3.66-4.43,6.05-7.28,7.11A11.41,11.41,0,0,1,994.77,248.37Zm-24.17-113a12.33,12.33,0,0,1-5.12-1.16,11.73,11.73,0,0,1,.77-21.78,12.71,12.71,0,0,1,4.49-.86,11,11,0,0,1,4.61,1,12.27,12.27,0,0,1,5.8,15.92,11.54,11.54,0,0,1-6.6,6.15A11.22,11.22,0,0,1,970.6,135.4Z"/><path class="cls-4" d="M975.9,169.16l4.28,44.48q1,11,3.26,17a14,14,0,0,0,3.74,5.88c1.51,1.31,3,1.68,4.48,1.13q3.81-1.43,8.77-13.64l2.61,1-.72,1.81a125.75,125.75,0,0,1-6.17,15q-2.25,4.13-5.07,5.18-3.81,1.42-7.9-1.46a17.83,17.83,0,0,1-6.25-8.66,76.73,76.73,0,0,1-2.88-12.23l-8.32-45.92Zm-14.42-49.53a7.71,7.71,0,0,1,9.63,10.42,7.81,7.81,0,0,1-14.22-.58,7.32,7.32,0,0,1,.2-5.82A7.55,7.55,0,0,1,961.48,119.63Z"/><path class="cls-3" d="M1046.36,228.71a13.7,13.7,0,0,1-6.6-1.69c-3.53-1.94-6.2-5.27-7.93-9.91-2.55-6.83-3.15-16-1.83-27.94.41-4.21,1.15-9.22,2.19-14.83.38-2.09.83-4.36,1.33-6.79a32.1,32.1,0,0,1-4.8,2.24c-.69.26-1.4.48-2.14.68-.17,8.58-2.1,18.08-5.77,28.29l-1.45,4-10.72-4.14,1.33-3.82c3.17-9.17,4.86-17.34,5-24.36a22.14,22.14,0,0,1-15.65-14.08,17.78,17.78,0,0,1-.73-11.53,11.77,11.77,0,0,1,7.3-8,11.52,11.52,0,0,1,4.06-.75,12.23,12.23,0,0,1,7.08,2.37,20.28,20.28,0,0,1,7.14,9.89,32.71,32.71,0,0,1,1.5,5.55c.45-.12.87-.26,1.28-.41,4.11-1.54,6.94-3.87,8.64-7.12l.74-1.43,13.75-5.13-.95,8.93a246.36,246.36,0,0,0-2.62,36.71c.08,11.33,1,19.44,2.76,24.13a3.89,3.89,0,0,0,1.52,2.08,1.53,1.53,0,0,0,.53.24c.66-.24,3.86-2,10-14.68l1.89-3.91,10,5.27-1.39,3.48a95.12,95.12,0,0,1-7.48,14.12c-3.53,5.84-7.69,9.69-12.35,11.43A16.2,16.2,0,0,1,1046.36,228.71Z"/><path class="cls-4" d="M1007.68,199.46q5.8-16.74,5.24-29.13-12-1.82-15.88-12.14a13.71,13.71,0,0,1-.64-8.87,7.61,7.61,0,0,1,12-4.14,16.1,16.1,0,0,1,5.61,7.92,32.69,32.69,0,0,1,1.82,9,25.89,25.89,0,0,0,6.34-1.38q7.62-2.85,10.89-9.11l5.9-2.2-.22,2a250.87,250.87,0,0,0-2.66,37.34q.14,17.8,3,25.56a8,8,0,0,0,3.24,4.18,4.7,4.7,0,0,0,4.28.57q5-1.87,12.23-16.75l2.8,1.48a93.82,93.82,0,0,1-7.17,13.46q-4.59,7.59-10.24,9.7a10.12,10.12,0,0,1-8.76-.37q-4-2.16-6-7.7-3.43-9.21-1.59-26c.41-4.16,1.12-9,2.14-14.52s2.42-12.16,4.2-19.92l.58-2.18a29,29,0,0,1-5.85,8.14,24,24,0,0,1-8,4.73,21.07,21.07,0,0,1-4.9,1.13q.55,13.52-5.49,30.34Zm5.19-37.52a35.48,35.48,0,0,0-1.43-5.35,14.62,14.62,0,0,0-3.94-6.23c-1.55-1.29-3.07-1.66-4.54-1.1a2.85,2.85,0,0,0-1.72,2,4.83,4.83,0,0,0,.16,3.23Q1003.55,160.24,1012.87,161.94Z"/><path class="cls-3" d="M1098.3,209.77a14,14,0,0,1-8.09-2.92,21.7,21.7,0,0,1-7.76-10.31,74.42,74.42,0,0,1-3-13.08L1054.13,27.71l18-18.91,21.73,162.47.68,5.22A51.44,51.44,0,0,0,1097,187.6a8.9,8.9,0,0,0,2.45,3.89,2.82,2.82,0,0,0,.45.32c.56-.45,2.71-2.59,6.21-11.19l1.53-3.79,10.43,3.94-2.29,5.71a128,128,0,0,1-6.4,15.49c-2,3.65-4.44,6-7.29,7.11A11,11,0,0,1,1098.3,209.77Z"/><path class="cls-4" d="M1062.93,21.26l20.57,153.82.68,5.21a55.08,55.08,0,0,0,2.67,12,13,13,0,0,0,3.73,5.68q2.31,1.88,4.4,1.09,3.81-1.43,8.78-13.64l2.61,1-.73,1.81a126.5,126.5,0,0,1-6.17,15q-2.25,4.13-5.07,5.18-3.69,1.38-8-1.71a17.64,17.64,0,0,1-6.28-8.37,71.12,71.12,0,0,1-2.76-12.28l-25-153.7Z"/><path class="cls-5" d="M974.48,121.15a12.17,12.17,0,0,1-1.64,12.47c2.58,5.61,6.51,12.1,6.69,12.4-.24-.26-5.17-5.69-9.7-9.7A12.17,12.17,0,0,1,954,133.86c-6.81,1.78-14.7,4.23-15.08,4.34.32-.28,7.41-6.54,12.29-11q-.06-.6-.06-1.2a12.11,12.11,0,0,1,4-9c-1.27-6.14-3.83-14.76-4-15.29.33.5,4.84,7.45,8.8,12.61a11.73,11.73,0,0,1,3.37-.48,12.12,12.12,0,0,1,8.19,3.17c6.59-3.74,16.1-9.78,16.53-10C987.69,107.32,979.49,115.46,974.48,121.15Z"/></g></g></svg>