<svg xmlns="http://www.w3.org/2000/svg" viewBox="0 0 411.89 230.51"><defs><style>.cls-1{fill:#ba181b;}.cls-2{fill:none;stroke:#ba181b;stroke-miterlimit:10;stroke-width:12px;}</style></defs><title>logo-main</title><g id="Livello_2" data-name="Livello 2"><g id="Livello_1-2" data-name="Livello 1"><path class="cls-1" d="M53.68,106.24c7.67-12.92,22.62-16.83,34.87-9.55s16,22.27,8.31,35.18C89.05,145,74.24,148.7,62,141.42S45.87,119.39,53.68,106.24ZM4.05,189.82c7.67-12.91,22.62-16.82,34.87-9.55s16,22.28,8.31,35.19c-7.81,13.15-22.62,16.82-34.87,9.55S-3.76,203,4.05,189.82Z"/><path class="cls-1" d="M283.44,0,259.6,3.8,388.05,228.69l23.84-3.8Z"/><polygon class="cls-2" points="147.45 97.24 73.97 224.51 220.92 224.51 147.45 97.24"/><polygon class="cls-2" points="250.14 46.65 147.45 224.51 352.82 224.51 250.14 46.65"/></g></g></svg>